<?xml version="1.0" encoding="utf-8"?>
<!-- Generator: Adobe Illustrator 22.1.0, SVG Export Plug-In . SVG Version: 6.00 Build 0)  -->
<svg version="1.1" id="Слой_1" xmlns="http://www.w3.org/2000/svg" xmlns:xlink="http://www.w3.org/1999/xlink" x="0px" y="0px"
	 viewBox="0 0 694 1050" style="enable-background:new 0 0 694 1050;" xml:space="preserve">
<style type="text/css">
	.st0{opacity:0.4;fill:url(#SVGID_1_);enable-background:new    ;}
	.st1{opacity:0.4;fill:url(#SVGID_2_);enable-background:new    ;}
	.st2{opacity:0.15;fill:url(#SVGID_3_);enable-background:new    ;}
	.st3{fill:#EAC543;}
	.st4{opacity:0.2;fill:url(#SVGID_4_);enable-background:new    ;}
	.st5{opacity:0.15;fill:#FFFFFF;enable-background:new    ;}
	.st6{opacity:0.2;fill:url(#SVGID_5_);enable-background:new    ;}
	.st7{opacity:0.2;fill:#FFFFFF;enable-background:new    ;}
	.st8{opacity:0.15;fill:url(#SVGID_6_);enable-background:new    ;}
	.st9{fill:#EA9343;}
	.st10{opacity:0.2;fill:url(#SVGID_7_);enable-background:new    ;}
	.st11{opacity:0.2;fill:url(#SVGID_8_);enable-background:new    ;}
	.st12{opacity:0.2;fill:url(#SVGID_9_);enable-background:new    ;}
</style>
<linearGradient id="SVGID_1_" gradientUnits="userSpaceOnUse" x1="241.4173" y1="1028.7347" x2="405.1995" y2="744.8073" gradientTransform="matrix(1 0 0 -1 0 1050)">
	<stop  offset="0" style="stop-color:#FFFFFF"/>
	<stop  offset="0.903" style="stop-color:#FFFFFF;stop-opacity:0"/>
</linearGradient>
<path class="st0" d="M299,300.6c8.5-4.9,14.6-5,18.3-0.4c3.8,4.6,5.6,12.4,5.6,23.3l0,59c0,11.2,1,20.5,3.1,27.9
	c2.1,7.7,5.6,13.1,10.4,16.3c4.7,3.3,11.1,4.1,19.2,2.6c7.9-1.4,17.8-5.6,29.6-12.4l5.6-3.3l0-46.5l-7.1,4.1
	c-8.5,4.9-14.1,5.5-16.9,2c-3-3.5-4.5-10.7-4.5-21.6l0-52c0-13.6-1.3-24.3-4-32.1c-2.6-7.9-7.9-12.9-15.8-15.1
	c7.9-11.3,13.2-22.5,15.8-33.4c2.6-10.9,3.9-23.1,3.9-36.7l0-52c0-10.9,1.5-19.9,4.5-26.8c2.8-6.8,8.5-12.7,16.9-17.6l7.1-4.1
	l0-46.5l-5.6,3.3c-11.8,6.8-21.7,14.1-29.6,21.8c-8.1,7.8-14.5,16-19.2,24.8c-4.9,8.8-8.4,18.2-10.4,28.3
	c-2.1,9.8-3.1,20.3-3.1,31.5l0,59c0,10.9-1.9,20.9-5.6,29.8c-3.8,8.9-9.9,15.9-18.3,20.7L299,300.6z"/>
<linearGradient id="SVGID_2_" gradientUnits="userSpaceOnUse" x1="335.9721" y1="1047.9834" x2="499.7731" y2="764.0907" gradientTransform="matrix(1 0 0 -1 0 1050)">
	<stop  offset="0" style="stop-color:#FFFFFF"/>
	<stop  offset="0.903" style="stop-color:#FFFFFF;stop-opacity:0"/>
</linearGradient>
<path class="st1" d="M513.2,129.7c-8.5,4.9-14.6,5-18.3,0.4c-3.8-4.6-5.6-12.4-5.6-23.3l0-59c0-11.2-1-20.5-3.1-27.9
	c-2.1-7.7-5.5-13.1-10.2-16.4c-4.9-3.2-11.3-4-19.2-2.6c-8.1,1.5-18.1,5.7-29.9,12.6l-5.6,3.3l0,46.5l7.1-4.1
	c8.5-4.9,14.2-5.6,17.2-2.1c2.8,3.6,4.2,10.8,4.2,21.8l0,52c0,13.6,1.3,24.3,4,32.1c2.6,7.9,7.9,12.9,15.8,15.1
	c-7.9,11.3-13.2,22.5-15.8,33.4c-2.6,10.9-3.9,23.1-3.9,36.7l0,52c0,10.9-1.4,19.8-4.2,26.7c-3,6.9-8.7,12.9-17.2,17.7l-7.1,4.1
	l0,46.5l5.6-3.3c11.8-6.8,21.8-14.2,29.9-21.9c7.9-7.7,14.3-15.9,19.2-24.8c4.7-8.7,8.1-18.1,10.1-28.1c2.1-9.8,3.1-20.3,3.1-31.5
	l0-59c0-10.9,1.9-20.9,5.6-29.8c3.8-8.9,9.9-15.9,18.3-20.7L513.2,129.7z"/>
<linearGradient id="SVGID_3_" gradientUnits="userSpaceOnUse" x1="55.0088" y1="912.7004" x2="256.8648" y2="562.9858" gradientTransform="matrix(1 0 0 -1 0 1050)">
	<stop  offset="0" style="stop-color:#FFFFFF"/>
	<stop  offset="1" style="stop-color:#FFFFFF;stop-opacity:0"/>
</linearGradient>
<path class="st2" d="M270.1,13.1L59,135L59,641.1l211.1-121.9L270.1,13.1z"/>
<path class="st3" d="M309.7,79.4l-167.9,96.9l0,46.5l167.9-96.9L309.7,79.4z"/>
<linearGradient id="SVGID_4_" gradientUnits="userSpaceOnUse" x1="132.4956" y1="691.8314" x2="188.5976" y2="594.6364" gradientTransform="matrix(1 0 0 -1 0 1050)">
	<stop  offset="0" style="stop-color:#FFFFFF"/>
	<stop  offset="1" style="stop-color:#FFFFFF;stop-opacity:0"/>
</linearGradient>
<path class="st4" d="M242.5,294.7L83.3,386.5l0,140.7l159.2-91.9L242.5,294.7z"/>
<path class="st5" d="M244.1,186.8L82.5,280.1l0,15.9l161.6-93.3L244.1,186.8z"/>
<path class="st5" d="M244.2,218.8l-139.7,80.6l0,15.9l139.7-80.6L244.2,218.8z"/>
<path class="st5" d="M244.2,250.4l-118.6,68.4l0,15.9l118.6-68.4L244.2,250.4z"/>
<linearGradient id="SVGID_5_" gradientUnits="userSpaceOnUse" x1="197.7005" y1="1035.8485" x2="133.3355" y2="853.6235" gradientTransform="matrix(1 0 0 -1 0 1050)">
	<stop  offset="0" style="stop-color:#FFFFFF"/>
	<stop  offset="1" style="stop-color:#FFFFFF;stop-opacity:0"/>
</linearGradient>
<path class="st6" d="M270.1,13.1L59,135l0,67.8L270.1,81L270.1,13.1z"/>
<path class="st7" d="M217.3,77.9c0,10.3,6,15.1,13.4,10.8c7.4-4.3,13.4-16,13.4-26.3c0-10.3-6-15.1-13.4-10.8S217.3,67.7,217.3,77.9
	z"/>
<linearGradient id="SVGID_6_" gradientUnits="userSpaceOnUse" x1="215.9936" y1="631.1649" x2="322.9126" y2="445.8839" gradientTransform="matrix(1 0 0 -1 0 1050)">
	<stop  offset="0" style="stop-color:#FFFFFF"/>
	<stop  offset="1" style="stop-color:#FFFFFF;stop-opacity:0"/>
</linearGradient>
<path class="st8" d="M650.5,168.1L0.7,543.1l0.1,506.4l649.8-375L650.5,168.1z"/>
<path class="st9" d="M693.5,292.9l-167.9,96.9l0,46.5l167.9-96.9L693.5,292.9z"/>
<path class="st5" d="M606.6,420.7L233.9,635.9l0,15.9l372.8-215.2L606.6,420.7z"/>
<path class="st5" d="M606.7,452.7L285,638.4l0,15.9l321.6-185.6L606.7,452.7z"/>
<path class="st5" d="M606.7,484.4l-273.7,158l0,15.9l273.7-158L606.7,484.4z"/>
<linearGradient id="SVGID_7_" gradientUnits="userSpaceOnUse" x1="160.684" y1="251.821" x2="216.786" y2="154.6259" gradientTransform="matrix(1 0 0 -1 0 1050)">
	<stop  offset="0" style="stop-color:#FFFFFF"/>
	<stop  offset="1" style="stop-color:#FFFFFF;stop-opacity:0"/>
</linearGradient>
<path class="st10" d="M355,686L27.2,875.2l0,140.7l327.8-189.2L355,686z"/>
<path class="st5" d="M330.4,728.1L281,756.6l0,46.5l49.4-28.5L330.4,728.1z"/>
<path class="st5" d="M269.9,765.3l-49.4,28.5l0,46.5l49.4-28.5L269.9,765.3z"/>
<path class="st5" d="M209.1,799.8l-49.4,28.5l0,46.5l49.4-28.5L209.1,799.8z"/>
<path class="st5" d="M148.2,836.5l-49.4,28.5l0,46.5l49.4-28.5L148.2,836.5z"/>
<linearGradient id="SVGID_8_" gradientUnits="userSpaceOnUse" x1="500.7813" y1="453.5147" x2="556.8832" y2="356.3197" gradientTransform="matrix(1 0 0 -1 0 1050)">
	<stop  offset="0" style="stop-color:#FFFFFF"/>
	<stop  offset="1" style="stop-color:#FFFFFF;stop-opacity:0"/>
</linearGradient>
<path class="st11" d="M667.7,500.2L394.8,657.7l0,140.7l272.9-157.5L667.7,500.2z"/>
<path class="st5" d="M640.2,552.1L423.4,677.2l0,15.9L640.2,568L640.2,552.1z"/>
<path class="st5" d="M640.2,584.1L466.5,684.3l0,15.9l173.6-100.2L640.2,584.1z"/>
<linearGradient id="SVGID_9_" gradientUnits="userSpaceOnUse" x1="489.4725" y1="937.1735" x2="243.0795" y2="519.7974" gradientTransform="matrix(1 0 0 -1 0 1050)">
	<stop  offset="0" style="stop-color:#FFFFFF"/>
	<stop  offset="1" style="stop-color:#FFFFFF;stop-opacity:0"/>
</linearGradient>
<path class="st12" d="M650.5,168.1L1.5,542.7l0,68.6l648.9-374.6L650.5,168.1z"/>
<path class="st7" d="M579.8,243.2c0,10.3,6,15.1,13.4,10.8c7.4-4.3,13.4-16,13.4-26.3c0-10.3-6-15.1-13.4-10.8
	C585.8,221.2,579.8,233,579.8,243.2z"/>
</svg>
